<mxfile host="app.diagrams.net" agent="Mozilla/5.0 (Macintosh; Intel Mac OS X 10_15_7) AppleWebKit/537.36 (KHTML, like Gecko) Chrome/128.0.0.0 Safari/537.36" version="24.7.16">
  <diagram name="Page-1" id="c7558073-3199-34d8-9f00-42111426c3f3">
    <mxGraphModel dx="1570" dy="964" grid="1" gridSize="10" guides="1" tooltips="1" connect="1" arrows="1" fold="1" page="1" pageScale="1" pageWidth="826" pageHeight="1169" background="none" math="0" shadow="0">
      <root>
        <mxCell id="0" />
        <mxCell id="1" parent="0" />
        <mxCell id="6Zwr0MyRlnE0_WiNeMVz-96" value="" style="rounded=0;whiteSpace=wrap;html=1;fillColor=#e1d5e7;strokeColor=#9673a6;" parent="1" vertex="1">
          <mxGeometry x="55" y="90" width="250" height="60" as="geometry" />
        </mxCell>
        <mxCell id="6Zwr0MyRlnE0_WiNeMVz-109" value="" style="rounded=1;whiteSpace=wrap;html=1;fillColor=#dae8fc;strokeColor=#6c8ebf;" parent="1" vertex="1">
          <mxGeometry x="50" y="240" width="740" height="490" as="geometry" />
        </mxCell>
        <mxCell id="6Zwr0MyRlnE0_WiNeMVz-139" value="" style="rounded=1;whiteSpace=wrap;html=1;fillColor=#fff2cc;strokeColor=#d6b656;" parent="1" vertex="1">
          <mxGeometry x="490" y="270" width="280" height="415" as="geometry" />
        </mxCell>
        <mxCell id="6Zwr0MyRlnE0_WiNeMVz-97" value="&lt;h2 style=&quot;text-align: left;&quot;&gt;Pre - Requisite&amp;nbsp;&lt;/h2&gt;&lt;h2&gt;&lt;span style=&quot;background-color: initial; font-size: 12px; font-weight: normal;&quot;&gt;(Fetching values in secret)&lt;/span&gt;&lt;/h2&gt;" style="text;html=1;align=center;verticalAlign=middle;whiteSpace=wrap;rounded=0;" parent="1" vertex="1">
          <mxGeometry x="20" y="40" width="199" height="30" as="geometry" />
        </mxCell>
        <mxCell id="6Zwr0MyRlnE0_WiNeMVz-100" value="" style="rounded=0;whiteSpace=wrap;html=1;" parent="1" vertex="1">
          <mxGeometry x="510" y="335" width="240" height="60" as="geometry" />
        </mxCell>
        <mxCell id="6Zwr0MyRlnE0_WiNeMVz-101" value="&lt;div style=&quot;text-align: left;&quot;&gt;&lt;br&gt;&lt;/div&gt;&lt;div style=&quot;text-align: left;&quot;&gt;Creation of Private Catalog.&lt;/div&gt;&lt;div&gt;&lt;br&gt;&lt;/div&gt;" style="text;html=1;align=center;verticalAlign=middle;whiteSpace=wrap;rounded=0;" parent="1" vertex="1">
          <mxGeometry x="550" y="340" width="160" height="30" as="geometry" />
        </mxCell>
        <mxCell id="6Zwr0MyRlnE0_WiNeMVz-140" value="" style="rounded=1;whiteSpace=wrap;html=1;fillColor=#fff2cc;strokeColor=#d6b656;" parent="1" vertex="1">
          <mxGeometry x="80" y="272.5" width="280" height="165" as="geometry" />
        </mxCell>
        <mxCell id="6Zwr0MyRlnE0_WiNeMVz-102" value="IBM Cloud&amp;nbsp;&amp;nbsp;&lt;div&gt;(Login Using Service ID)&lt;/div&gt;" style="text;html=1;align=center;verticalAlign=middle;whiteSpace=wrap;rounded=0;" parent="1" vertex="1">
          <mxGeometry x="540" y="275" width="150" height="30" as="geometry" />
        </mxCell>
        <mxCell id="6Zwr0MyRlnE0_WiNeMVz-103" value="" style="rounded=0;whiteSpace=wrap;html=1;" parent="1" vertex="1">
          <mxGeometry x="100" y="330" width="230" height="70" as="geometry" />
        </mxCell>
        <mxCell id="6Zwr0MyRlnE0_WiNeMVz-104" value="&amp;nbsp;Cluster" style="text;html=1;align=center;verticalAlign=middle;whiteSpace=wrap;rounded=0;" parent="1" vertex="1">
          <mxGeometry x="145" y="280" width="140" height="30" as="geometry" />
        </mxCell>
        <mxCell id="6Zwr0MyRlnE0_WiNeMVz-105" value="1. Secret Creation using toml file&lt;div&gt;2. Creation of Load balancer using Yaml&lt;/div&gt;" style="text;html=1;align=left;verticalAlign=middle;whiteSpace=wrap;rounded=0;" parent="1" vertex="1">
          <mxGeometry x="105" y="350" width="220" height="30" as="geometry" />
        </mxCell>
        <mxCell id="6Zwr0MyRlnE0_WiNeMVz-106" value="" style="rounded=0;whiteSpace=wrap;html=1;" parent="1" vertex="1">
          <mxGeometry x="511" y="440" width="240" height="62.5" as="geometry" />
        </mxCell>
        <mxCell id="6Zwr0MyRlnE0_WiNeMVz-107" value="Share Private Catalog to MCSP Account&lt;div&gt;through API&lt;/div&gt;" style="text;html=1;align=center;verticalAlign=middle;whiteSpace=wrap;rounded=0;" parent="1" vertex="1">
          <mxGeometry x="520" y="466.25" width="220" height="10" as="geometry" />
        </mxCell>
        <mxCell id="6Zwr0MyRlnE0_WiNeMVz-112" value="" style="endArrow=classic;html=1;rounded=0;exitX=0.447;exitY=0.818;exitDx=0;exitDy=0;exitPerimeter=0;" parent="1" edge="1">
          <mxGeometry width="50" height="50" relative="1" as="geometry">
            <mxPoint x="379.86" y="370.00000000000006" as="sourcePoint" />
            <mxPoint x="460.14" y="370.06" as="targetPoint" />
            <Array as="points">
              <mxPoint x="419.86" y="370" />
            </Array>
          </mxGeometry>
        </mxCell>
        <mxCell id="6Zwr0MyRlnE0_WiNeMVz-117" value="1. Service ID of Product Account&lt;div&gt;2. MCSP Account ID&lt;/div&gt;" style="text;html=1;align=left;verticalAlign=middle;whiteSpace=wrap;rounded=0;" parent="1" vertex="1">
          <mxGeometry x="70" y="100" width="200" height="40" as="geometry" />
        </mxCell>
        <mxCell id="6Zwr0MyRlnE0_WiNeMVz-120" value="" style="rounded=1;whiteSpace=wrap;html=1;fillColor=#d5e8d4;strokeColor=#82b366;" parent="1" vertex="1">
          <mxGeometry x="60" y="940" width="740" height="130" as="geometry" />
        </mxCell>
        <mxCell id="6Zwr0MyRlnE0_WiNeMVz-123" value="" style="rounded=0;whiteSpace=wrap;html=1;fillColor=#e1d5e7;strokeColor=#9673a6;" parent="1" vertex="1">
          <mxGeometry x="67.5" y="785" width="267.5" height="60" as="geometry" />
        </mxCell>
        <mxCell id="6Zwr0MyRlnE0_WiNeMVz-122" value="Private Catalog CRN" style="text;html=1;align=left;verticalAlign=middle;whiteSpace=wrap;rounded=0;" parent="1" vertex="1">
          <mxGeometry x="138" y="790" width="200" height="50" as="geometry" />
        </mxCell>
        <mxCell id="6Zwr0MyRlnE0_WiNeMVz-124" value="" style="rounded=0;whiteSpace=wrap;html=1;" parent="1" vertex="1">
          <mxGeometry x="105" y="970" width="230" height="60" as="geometry" />
        </mxCell>
        <mxCell id="6Zwr0MyRlnE0_WiNeMVz-125" value="Acceptance of Private Catalog Account using API" style="text;html=1;align=center;verticalAlign=middle;whiteSpace=wrap;rounded=0;" parent="1" vertex="1">
          <mxGeometry x="135" y="985" width="170" height="30" as="geometry" />
        </mxCell>
        <mxCell id="6Zwr0MyRlnE0_WiNeMVz-126" value="" style="rounded=0;whiteSpace=wrap;html=1;" parent="1" vertex="1">
          <mxGeometry x="525" y="970" width="210" height="60" as="geometry" />
        </mxCell>
        <mxCell id="6Zwr0MyRlnE0_WiNeMVz-127" value="VPEG Creation using API" style="text;html=1;align=center;verticalAlign=middle;whiteSpace=wrap;rounded=0;" parent="1" vertex="1">
          <mxGeometry x="557.5" y="987.5" width="125" height="25" as="geometry" />
        </mxCell>
        <mxCell id="6Zwr0MyRlnE0_WiNeMVz-128" value="" style="rounded=0;whiteSpace=wrap;html=1;" parent="1" vertex="1">
          <mxGeometry x="510" y="555" width="240" height="65" as="geometry" />
        </mxCell>
        <mxCell id="6Zwr0MyRlnE0_WiNeMVz-129" value="DNS Record Creation using API" style="text;html=1;align=center;verticalAlign=middle;whiteSpace=wrap;rounded=0;" parent="1" vertex="1">
          <mxGeometry x="570" y="572.5" width="135" height="30" as="geometry" />
        </mxCell>
        <mxCell id="6Zwr0MyRlnE0_WiNeMVz-133" value="" style="endArrow=classic;html=1;rounded=0;exitX=0.447;exitY=0.818;exitDx=0;exitDy=0;exitPerimeter=0;" parent="1" edge="1">
          <mxGeometry width="50" height="50" relative="1" as="geometry">
            <mxPoint x="379.86" y="999.5" as="sourcePoint" />
            <mxPoint x="460.14" y="999.56" as="targetPoint" />
          </mxGeometry>
        </mxCell>
        <mxCell id="6Zwr0MyRlnE0_WiNeMVz-141" value="" style="endArrow=classic;html=1;rounded=0;" parent="1" edge="1">
          <mxGeometry width="50" height="50" relative="1" as="geometry">
            <mxPoint x="200.75" y="690" as="sourcePoint" />
            <mxPoint x="200.75" y="750" as="targetPoint" />
          </mxGeometry>
        </mxCell>
        <mxCell id="6Zwr0MyRlnE0_WiNeMVz-143" value="" style="endArrow=classic;html=1;rounded=0;" parent="1" edge="1">
          <mxGeometry width="50" height="50" relative="1" as="geometry">
            <mxPoint x="200" y="859" as="sourcePoint" />
            <mxPoint x="200" y="919" as="targetPoint" />
            <Array as="points">
              <mxPoint x="200" y="889" />
            </Array>
          </mxGeometry>
        </mxCell>
        <mxCell id="6Zwr0MyRlnE0_WiNeMVz-144" value="&lt;h1 style=&quot;margin-top: 0px;&quot;&gt;&lt;span style=&quot;background-color: initial;&quot;&gt;Product&amp;nbsp;&lt;/span&gt;&lt;/h1&gt;" style="text;html=1;whiteSpace=wrap;overflow=hidden;rounded=0;" parent="1" vertex="1">
          <mxGeometry x="376.25" y="180" width="130" height="50" as="geometry" />
        </mxCell>
        <mxCell id="6Zwr0MyRlnE0_WiNeMVz-145" value="&lt;h1 style=&quot;margin-top: 0px;&quot;&gt;MCSP&lt;/h1&gt;" style="text;html=1;whiteSpace=wrap;overflow=hidden;rounded=0;" parent="1" vertex="1">
          <mxGeometry x="400.5" y="872" width="107.5" height="50" as="geometry" />
        </mxCell>
        <mxCell id="6Zwr0MyRlnE0_WiNeMVz-148" value="" style="endArrow=classic;html=1;rounded=0;" parent="1" edge="1">
          <mxGeometry width="50" height="50" relative="1" as="geometry">
            <mxPoint x="169.29000000000002" y="170" as="sourcePoint" />
            <mxPoint x="169.29000000000002" y="220" as="targetPoint" />
          </mxGeometry>
        </mxCell>
        <mxCell id="6Zwr0MyRlnE0_WiNeMVz-149" value="Using Yaml File" style="text;html=1;align=center;verticalAlign=middle;whiteSpace=wrap;rounded=0;" parent="1" vertex="1">
          <mxGeometry x="560" y="359" width="110" height="30" as="geometry" />
        </mxCell>
        <mxCell id="KwjNUwPmeWzdMJ_PeloO-6" value="" style="endArrow=none;html=1;rounded=0;" edge="1" parent="1">
          <mxGeometry width="50" height="50" relative="1" as="geometry">
            <mxPoint x="200" y="583.5" as="sourcePoint" />
            <mxPoint x="470" y="583.5" as="targetPoint" />
          </mxGeometry>
        </mxCell>
        <mxCell id="KwjNUwPmeWzdMJ_PeloO-7" value="" style="endArrow=none;html=1;rounded=0;" edge="1" parent="1">
          <mxGeometry width="50" height="50" relative="1" as="geometry">
            <mxPoint x="200.75" y="585" as="sourcePoint" />
            <mxPoint x="200.75" y="690" as="targetPoint" />
          </mxGeometry>
        </mxCell>
      </root>
    </mxGraphModel>
  </diagram>
</mxfile>
